<svg width="441" height="490" viewBox="0 0 441 490" fill="none" xmlns="http://www.w3.org/2000/svg">
<path d="M222.438 36.625C189.009 37.0532 155.504 48.2733 130.312 70.0625C116.176 82.2897 104.998 97.7125 97.875 115C93.3164 126.064 90.4387 137.783 89.0312 149.656C88.6517 152.858 88.3853 156.062 88.2188 159.281C88.169 160.244 88.1081 161.161 88.0938 162.125C88.0832 162.833 87.9889 163.55 88.0938 164.25C88.1948 164.925 88.5037 165.54 88.7188 166.188C89.162 167.522 89.6564 168.83 90.125 170.156C91.0307 172.719 91.931 175.314 92.75 177.906C93.2542 179.502 93.7664 181.099 94.0625 182.75C94.0723 182.805 94.0628 182.649 94.0625 182.594C94.0625 182.591 94.0625 182.534 94.0625 182.531C94.0527 182.903 94.1318 183.268 94.2188 183.625C94.1704 184.735 94.1366 185.368 94.0938 186.531C94.0033 188.986 93.9323 191.45 93.875 193.906C93.7104 200.964 93.6703 208.004 93.8125 215.062C93.865 217.667 93.9495 220.273 94.0625 222.875C94.0853 223.401 94.1047 223.937 94.125 224.469C91.3994 226.134 88.7315 227.895 86.1875 229.812C77.94 236.028 70.2948 244.136 68.625 254.719C68.3269 256.608 68.2344 258.527 68.3125 260.438C68.4111 262.85 68.7429 265.331 69.4062 267.656C69.5816 268.271 69.6946 268.907 70 269.469C70.3278 270.071 70.8295 270.546 71.2812 271.062C71.4348 271.238 71.6364 271.378 71.8125 271.531C72.6568 272.264 73.5628 272.932 74.5625 273.438C80.5609 276.469 86.5477 272.322 91.8125 269.625C93.7812 268.616 95.7795 267.684 97.8125 266.812C98.3703 266.573 99.0003 266.289 99.5625 266.062C99.7551 265.985 99.9626 265.919 100.156 265.844C100.441 265.924 100.733 265.992 101 266.062C101.8 266.275 102.603 266.487 103.406 266.688C105.86 267.301 108.315 267.901 110.656 268.875C114.583 270.508 117.38 272.906 117.438 277.406C117.45 278.413 117.311 279.385 117.156 280.375C117.148 280.428 117.133 280.479 117.125 280.531C117.105 280.628 117.081 280.716 117.062 280.812C116.996 281.153 116.988 281.304 116.969 281.688C116.927 282.506 117.043 283.343 117.375 284.094C117.928 285.346 119.195 286.54 120.125 287.469C120.679 288.023 121.225 288.512 121.812 289.031C125.355 292.163 129.464 294.653 133.781 296.562C143.323 300.782 153.933 302.38 164.312 302.25C184.936 301.991 205.99 295.009 221.594 281.281C224.985 278.298 228.086 275.015 230.844 271.438C233.367 268.163 235.527 264.643 238.188 261.469C242.781 255.988 248.283 251.212 254.594 247.812C269.826 239.607 287.898 240.766 302.094 250.594C305.281 252.801 308.219 255.4 310.812 258.281C311.702 259.27 312.564 260.29 313.375 261.344C313.849 261.96 314.264 262.662 314.812 263.219C316.032 264.458 317.728 265.158 319.469 265.062C322.228 264.911 325.039 262.055 327 260.406C327.368 260.097 327.728 259.78 328.094 259.469C328.826 258.847 329.555 258.223 330.281 257.594C338.043 250.868 345.529 243.711 352.219 235.906C356.081 231.4 359.75 226.651 362.562 221.406C364.303 218.161 365.748 214.657 366.156 210.969C366.341 209.297 366.317 207.587 365.969 205.938C365.677 204.553 365.183 203.223 364.469 202C360.333 194.919 351.038 193.794 343.625 193.938C342.106 193.967 340.608 194.064 339.094 194.188C337.311 194.332 335.553 194.667 333.781 194.906C334.932 191.87 336.024 188.828 337.031 185.75C346.111 158.003 348.551 127.362 336.594 100.062C334.287 94.7952 331.495 89.7471 328.25 85C313.851 63.9367 291.348 49.939 267.188 42.75C252.815 38.4734 237.632 36.4304 222.438 36.625ZM222.344 49.8125C255.455 49.5299 291.249 60.3479 313.031 86.5625C316.164 90.3328 318.936 94.3876 321.344 98.6562C324.443 104.152 326.848 110.056 328.562 116.125C331.034 124.872 332.059 134.016 331.906 143.094C331.668 157.252 328.646 171.268 324.156 184.656C323.527 186.532 322.877 188.396 322.188 190.25C321.655 191.682 321.127 193.112 320.562 194.531C320.178 195.497 319.774 196.447 319.375 197.406C318.859 198.647 318.13 200.013 317.906 201.344C317.708 202.523 317.786 203.76 318.25 204.875C318.666 205.874 319.204 206.66 320.031 207.375C321.075 208.277 322.36 208.781 323.719 208.906C324.85 209.011 325.967 208.696 327.062 208.469C327.689 208.339 328.309 208.186 328.938 208.062C329.538 207.944 330.148 207.83 330.75 207.719C331.908 207.504 332.963 207.339 334.125 207.156C335.653 206.916 337.212 206.699 338.75 206.531C340.85 206.302 342.949 206.138 345.062 206.125C347.414 206.11 349.869 206.206 352.125 206.938C352.965 207.21 354.125 207.63 354.281 208.625C354.552 210.346 353.723 212.277 353.062 213.812C351.503 217.438 349.231 220.759 346.875 223.906C340.747 232.095 333.447 239.429 325.938 246.344C323.904 248.216 321.84 250.065 319.75 251.875C318.931 250.95 318.123 249.998 317.25 249.125C312.842 244.717 307.77 240.964 302.219 238.125C285.602 229.628 266.088 229.967 249.781 239.062C242.438 243.159 236.052 248.808 230.75 255.312C226.952 259.972 223.992 265.235 219.969 269.719C214.45 275.868 207.693 280.819 200.344 284.562C188.474 290.609 174.998 293.679 161.688 293.531C155.447 293.462 149.187 292.691 143.188 290.938C136.533 288.992 130.305 285.75 125.438 280.781C125.598 279.603 125.804 278.406 125.781 277.25C125.754 275.831 125.574 274.437 125.219 273.062C123.725 267.291 119.149 263.445 113.812 261.25C110.704 259.972 107.441 259.208 104.188 258.406C103.377 258.207 102.509 257.873 101.688 257.75C100.914 257.634 100.154 257.407 99.375 257.469C98.7249 257.521 98.114 257.874 97.5 258.094C96.5053 258.45 95.5313 258.892 94.5625 259.312C90.7225 260.979 87.0759 262.989 83.3438 264.875C82.1494 265.479 79.8145 266.933 78.3438 266.312C77.9095 266.129 77.5465 265.804 77.1875 265.5C77.1218 265.211 77.0346 264.914 76.9688 264.625C76.835 264.038 76.7182 263.377 76.625 262.781C76.2729 260.531 76.2128 258.221 76.5625 255.969C78.0504 246.385 86.3164 239.285 93.8438 234.062C94.8691 233.351 95.9195 232.676 96.9688 232C99.0439 230.664 101.621 229.566 102.094 226.844C102.259 225.894 102.11 224.769 102.062 223.812C102.042 223.392 102.019 222.952 102 222.531C101.905 220.414 101.833 218.306 101.781 216.188C101.625 209.829 101.641 203.453 101.75 197.094C101.805 193.883 101.888 190.678 102 187.469C102.037 186.396 102.08 185.323 102.125 184.25C102.127 184.198 102.123 184.146 102.125 184.094C102.151 184.018 102.231 183.775 102.25 183.75C102.502 183.426 102.427 182.143 102.375 181.719C102.135 179.748 101.458 177.794 100.875 175.906C99.991 173.042 99.023 170.203 98.0312 167.375C97.6834 166.383 97.3544 165.396 97 164.406C96.8716 164.048 96.7436 163.694 96.5938 163.344C96.5501 163.242 96.4179 163.173 96.4062 163.062C96.3837 162.849 96.4839 162.621 96.5 162.406C96.5334 161.96 96.5402 161.541 96.5625 161.094C97.4023 144.248 101.33 127.544 109.062 112.5C111.863 107.051 115.19 101.837 118.906 96.9688C142.948 65.4715 183.554 50.1436 222.344 49.8125Z" fill="white"/>
<path d="M304.344 242.688C302.915 242.573 301.485 243.305 300.781 244.656C298.846 248.365 297.038 252.115 295.406 255.969C287.178 275.4 282.655 299.241 292.688 318.906C293.902 321.286 295.331 323.552 296.938 325.688C304.829 336.173 317.271 342.53 330.156 344.469C330.433 345.337 330.754 346.195 330.938 347.094C331.57 350.185 331.604 353.383 331.125 356.5C330.428 361.039 328.621 365.362 326 369.125C323.155 373.209 319.399 376.607 315.094 379.094C314.467 379.456 313.802 379.745 313.156 380.062C312.39 378.802 311.535 377.561 310.625 376.438C309.369 374.885 307.953 373.458 306.312 372.312C305.088 371.457 303.732 370.781 302.312 370.312C293.719 367.478 285.307 373.526 279.438 379.188C273.764 384.659 269.018 391.086 264.656 397.625C259.987 404.626 255.711 411.899 251.844 419.375C249.045 424.785 246.34 430.227 243.344 435.531C242.325 437.335 241.287 439.132 240.219 440.906C239.912 441.416 239.598 441.933 239.281 442.438C239.177 442.462 239.073 442.477 238.969 442.5C238.666 442.568 238.367 442.624 238.062 442.688C237.475 442.809 236.904 442.93 236.312 443.031C234.215 443.389 232.099 443.614 229.969 443.531C227.887 443.451 225.76 443.057 223.938 442C220.308 439.896 218.441 435.663 216.812 432C213.728 425.06 210.897 418.037 206.031 412.094C205.339 411.249 204.566 410.352 203.812 409.562C202.749 408.449 201.47 407.08 200 406.531C197.881 405.741 195.681 406.661 193.625 407.219C191.313 407.846 188.983 408.463 186.656 409.031C177.94 411.16 168.996 413.052 160 413.281C156.48 413.371 152.683 413.29 149.344 412.031C148.042 411.54 146.638 410.767 146.031 409.438C145.429 408.116 145.629 406.548 145.969 405.188C146.602 402.651 147.871 400.265 149.25 398.062C152.351 393.111 156.361 388.719 160.625 384.75C161.471 383.963 162.466 383.033 163.344 382.281C163.812 381.881 164.309 381.521 164.781 381.125C165.138 380.826 166.248 379.885 166.688 379.188C166.962 378.752 167.191 378.283 167.312 377.781C167.569 376.72 167.427 375.602 166.938 374.625C166.519 373.791 165.566 372.927 165 372.312C164.755 372.047 164.523 371.768 164.281 371.5C164.046 371.24 163.826 370.982 163.594 370.719C162.939 369.979 162.284 369.231 161.656 368.469C160.912 367.564 160.192 366.633 159.5 365.688C158.398 364.183 157.361 362.625 156.5 360.969C155.416 358.884 153.77 355.301 155.938 353.344C157.783 351.677 160.632 351.151 163 350.781C167.352 350.102 171.803 350.15 176.188 350.406C184.68 350.902 193.137 352.264 201.469 353.938C210.875 355.827 220.191 358.16 229.375 360.938C234.001 362.337 238.624 363.808 243.094 365.656C244.248 366.134 245.427 366.635 246.5 367.281C246.537 367.304 246.589 367.32 246.625 367.344C246.573 367.308 246.728 367.403 246.781 367.438C246.804 367.452 246.82 367.487 246.844 367.5C246.984 367.595 247.128 367.711 247.281 367.781C247.603 367.929 247.938 368.038 248.281 368.125C249.373 368.403 250.52 368.158 251.469 367.594C252.657 366.887 253.858 365.672 254.844 364.75C255.325 364.301 255.78 363.836 256.25 363.375C256.714 362.919 257.173 362.468 257.625 362C261.081 358.427 264.175 354.495 266.812 350.281C281.559 326.723 279.943 296.915 269.594 272C266.666 264.951 263.016 258.055 258.25 252.062C255.757 248.928 252.901 245.957 249.312 244.094C247.401 243.119 245.069 243.87 244.094 245.781C243.119 247.693 243.901 250.056 245.812 251.031C248.151 252.177 250.023 254.246 251.656 256.219C254.944 260.19 257.565 264.701 259.844 269.312C268.784 287.405 272.77 309.553 267.469 329.281C265.166 337.85 261.074 345.887 255.406 352.719C253.566 354.936 251.579 357.006 249.469 358.969C249.249 359.174 249.036 359.393 248.812 359.594C248.737 359.557 248.67 359.505 248.594 359.469C246.833 358.626 245.014 357.906 243.188 357.219C237.408 355.044 231.476 353.224 225.531 351.562C211.202 347.557 196.513 344.252 181.688 342.781C176.922 342.309 172.132 342.039 167.344 342.25C164.187 342.389 160.993 342.73 157.938 343.562C155.997 344.092 154.113 344.829 152.406 345.906C151.401 346.541 150.457 347.275 149.656 348.156C144.833 353.467 146.816 360.568 150 366.125C151.886 369.416 154.22 372.44 156.688 375.312C156.994 375.67 157.313 376.022 157.625 376.375C157.249 376.699 156.871 377.014 156.5 377.344C153.985 379.577 151.6 381.942 149.344 384.438C148.016 385.906 146.711 387.433 145.5 389C144.337 390.505 143.233 392.047 142.219 393.656C138.762 399.143 135.534 406.499 138.469 412.906C142.103 420.841 152.618 421.81 160.219 421.625C161.709 421.589 163.201 421.496 164.688 421.375C166.336 421.241 167.984 421.056 169.625 420.844C172.088 420.525 174.527 420.136 176.969 419.688C179.748 419.177 182.527 418.597 185.281 417.969C188.812 417.163 192.316 416.257 195.812 415.312C196.289 415.184 196.774 415.068 197.25 414.938C198.645 416.387 199.992 417.876 201.156 419.531C203.861 423.377 205.777 427.666 207.625 431.969C209.577 436.515 211.467 441.258 214.719 445.062C219.713 450.907 226.605 452.455 233.938 451.812C236.245 451.61 238.553 451.224 240.812 450.719C241.848 450.487 242.949 450.284 243.875 449.75C245.276 448.942 246.07 447.478 246.906 446.156C247.442 445.31 247.95 444.45 248.469 443.594C251.197 439.091 253.806 434.517 256.562 430.031C262.063 421.079 267.398 411.997 273.125 403.188C277.441 396.549 281.929 389.83 287.562 384.219C288.871 382.915 290.275 381.698 291.781 380.625C292.933 379.805 294.164 379.071 295.5 378.594C296.309 378.305 297.138 378.114 298 378.094C301.63 378.009 304.225 381.207 305.969 384C306.387 384.67 306.774 385.372 307.156 386.062C307.173 386.095 307.178 386.106 307.188 386.125C307.244 386.237 307.287 386.326 307.344 386.438C307.497 386.74 307.673 387.039 307.875 387.312C308.55 388.224 309.514 388.905 310.625 389.156C312.666 389.617 314.937 388.31 316.688 387.438C319.931 385.82 322.977 383.81 325.719 381.438C328.334 379.175 330.685 376.592 332.656 373.75C335.271 369.981 337.239 365.759 338.375 361.312C339.187 358.135 339.585 354.843 339.5 351.562C339.447 349.506 339.206 347.45 338.781 345.438C338.606 344.605 338.394 343.848 338.156 343.031C337.744 341.614 337.225 339.602 336.156 338.469C334.788 337.019 332.946 336.961 331.406 336.719C330.696 336.607 329.862 336.483 329.156 336.344C326.335 335.787 323.565 334.988 320.875 333.969C314.499 331.553 308.679 327.714 304.25 322.5C291.345 307.309 293.031 285.436 298.875 267.688C299.858 264.701 300.964 261.74 302.188 258.844C303.739 255.171 305.472 251.598 307.312 248.062C308.251 246.261 307.552 244.033 305.75 243.094C305.3 242.859 304.82 242.726 304.344 242.688Z" fill="white"/>
<path d="M279.375 105.812C277.852 106.19 276.6 107.215 275.438 108.219C274.395 109.119 273.394 110.072 272.438 111.062C269.898 113.692 267.884 116.802 266.031 119.938C263.162 124.792 260.827 129.972 258.625 135.156C255.873 141.636 253.291 148.133 251.656 155C248.338 168.934 248.775 183.976 255.719 196.781C257.607 200.263 259.934 203.534 262.594 206.469C268.101 212.545 274.52 216.784 282.562 218.781C289.521 220.509 296.76 220.427 303.875 220.781C309.234 221.048 314.461 220.496 319.406 218.25C322.308 216.932 324.789 215.05 326.375 212.25C327.344 210.521 326.729 208.344 325 207.375C323.271 206.406 321.063 207.021 320.094 208.75C318.961 210.809 316.52 211.763 314.375 212.406C308.861 214.061 303.564 213.159 297.938 212.562C292.281 211.962 286.482 211.094 281.312 208.594C276.96 206.489 273.426 203.313 270.312 199.656C264.869 193.264 261.473 185.529 260.344 177.219C258.594 164.346 261.707 151.364 266.031 139.312C267.059 136.449 268.136 133.605 269.344 130.812C271.239 126.429 273.425 122.189 276.281 118.344C277.314 116.954 278.472 115.702 279.75 114.531C280.152 114.163 280.544 113.808 280.969 113.469C281.086 113.376 281.192 113.307 281.312 113.219C282.688 112.932 283.851 111.891 284.219 110.438C284.732 108.408 283.498 106.357 281.469 105.844C280.77 105.784 280.056 105.644 279.375 105.812Z" fill="white"/>
<path d="M271.062 152.844C270.503 152.926 269.958 153.229 269.594 153.719C269.143 154.394 268.685 155.071 268.438 155.844C268.085 156.942 268.053 158.146 267.625 159.219C262.616 171.775 263.742 186.605 270.344 198.406C270.852 199.314 271.381 200.215 271.938 201.094C272.412 201.843 272.899 202.585 273.406 203.312C275.346 206.098 278.397 210.39 282.375 209.344C283.49 209.041 284.146 207.896 283.844 206.781C283.541 205.666 282.396 205.01 281.281 205.312C280.567 205.525 279.206 203.79 278.906 203.406C278.76 203.219 278.606 203.037 278.469 202.844C276.662 200.305 275.408 197.315 274.406 194.375C272.231 187.993 270.69 181.398 270.25 174.656C270.034 171.346 270.058 167.981 270.719 164.719C271.134 162.67 272.018 160.775 272.375 158.719C272.509 157.944 272.516 156.869 273.156 156.344C273.884 155.364 273.667 154.009 272.688 153.281C272.198 152.917 271.622 152.761 271.062 152.844Z" fill="white"/>
<path d="M236.132 255.297C236.468 251.971 239.418 250.207 240.726 247.427C244.663 239.062 251.805 227.234 261.013 223.737" stroke="white" stroke-width="5.70282" stroke-miterlimit="10" stroke-linecap="round"/>
<path d="M150.579 297.783C150.284 297.175 150.722 300.125 150.848 300.578C151.463 302.793 152.505 304.52 153.684 306.434C157.578 312.757 161.099 318.143 166.793 323.123C168.713 324.802 170.649 326.198 172.755 327.63C173.667 328.25 175.991 330.562 175.375 329.648" stroke="white" stroke-width="5.70282" stroke-miterlimit="10" stroke-linecap="round"/>
<path d="M168.452 344.601C167.719 346.085 169.169 340.275 169.196 340.166C170.192 336.221 171.556 332.123 175.496 330.575" stroke="white" stroke-width="5.70282" stroke-miterlimit="10" stroke-linecap="round"/>
<path d="M190.7 343.785C189.92 344.311 190.348 333.989 190.331 332.232C190.324 331.528 191.227 330.04 190.529 330.131C188.872 330.346 178.38 331.334 177.318 330.81" stroke="white" stroke-width="5.70282" stroke-miterlimit="10" stroke-linecap="round"/>
<path d="M175.439 297.477C174.328 299.727 177.329 303.684 178.02 305.724C180.965 314.418 186.106 320.758 190.405 328.449" stroke="white" stroke-width="5.70282" stroke-miterlimit="10" stroke-linecap="round"/>
<path d="M203.831 290.958C203.08 290.697 204.693 292.294 205.129 292.959C206.001 294.291 206.571 295.859 207.203 297.311C209.1 301.664 210.12 306.268 212.048 310.64C214.973 317.275 216.336 325.454 216.888 332.648C217.266 337.57 215.936 342.741 216.567 347.592" stroke="white" stroke-width="5.70282" stroke-miterlimit="10" stroke-linecap="round"/>
<path d="M192.488 332.14C191.794 332.078 190.489 332.726 190.399 332.034C190.394 331.998 196.58 331.511 196.743 331.493C200.739 331.05 204.726 330.465 208.696 329.845C209.995 329.643 214.328 328.828 214.318 328.832" stroke="white" stroke-width="5.70282" stroke-miterlimit="10" stroke-linecap="round"/>
<path d="M217.052 352.056C216.493 351.226 217.304 348.478 217.901 347.702" stroke="white" stroke-width="5.70282" stroke-miterlimit="10" stroke-linecap="round"/>
<path d="M218.338 327.838C217.203 328.222 218.489 327.696 218.859 327.487C223.603 324.81 228.051 320.977 233.392 319.563C233.709 319.479 235.032 318.953 235.271 319.507C236.068 321.354 235.328 324.369 235.304 326.294C235.183 335.838 232.687 345.348 233.923 354.863" stroke="white" stroke-width="5.70282" stroke-miterlimit="10" stroke-linecap="round"/>
<path d="M226.898 272.492C226.166 272.986 229.864 284 230.327 285.817C233.356 297.686 234.233 310.069 235.806 322.173" stroke="white" stroke-width="5.70282" stroke-miterlimit="10" stroke-linecap="round"/>
<path d="M241.75 256.131C240.15 252.059 244.253 257.106 244.753 258.194C246.04 260.994 246.661 264.214 247.43 267.183C249.599 275.553 251.028 283.778 251.555 292.396C252.173 302.489 251.496 313.602 247.318 322.94C246.171 325.505 245.167 328.511 242.899 330.306C241.893 331.102 241.652 332.267 240.491 331.373C240.132 331.097 238.779 331.044 239.342 331.24" stroke="white" stroke-width="5.70282" stroke-miterlimit="10" stroke-linecap="round"/>
<path d="M255.868 296.552C255.494 296.479 255.088 295.722 254.856 296.023C254.837 296.048 255.798 298.23 255.807 298.258C257.481 303.404 259.155 308.572 260.743 313.745C264.091 324.654 261.989 336.402 263.388 347.167" stroke="white" stroke-width="5.70282" stroke-miterlimit="10" stroke-linecap="round"/>
<path d="M254.846 291.592C254.108 291.881 257.785 287.928 258.684 286.283C259.477 284.83 263.645 274.379 263.481 273.115" stroke="white" stroke-width="5.70282" stroke-miterlimit="10" stroke-linecap="round"/>
<path d="M176.076 399.043C179.032 398.123 180.904 397.488 184.089 397.582C189.969 397.756 200.309 411.085 203.639 416.17" stroke="white" stroke-width="5.70282" stroke-miterlimit="10" stroke-linecap="round"/>
<path d="M163.771 376.828C163.019 377.093 165.413 374.416 165.623 374.228C166.776 373.196 167.74 372.103 168.984 371.165C173.696 367.614 178.425 364.248 184.617 364.052C199.794 363.571 214.367 368.147 228.184 373.88C231.94 375.438 238.601 376.539 240.628 380.598" stroke="white" stroke-width="5.70282" stroke-miterlimit="10" stroke-linecap="round"/>
<path d="M204.781 125.938C203.937 125.771 203.038 125.816 202.281 125.969C198.408 126.748 195.477 129.715 192.531 132.125C186.721 136.878 180.797 141.471 175.812 147.125C165.643 158.66 160.2 173.159 153.594 186.812C153.093 187.848 152.568 188.873 152.062 189.906C151.563 190.925 151.086 191.931 150.562 192.938C148.979 195.983 146.429 200.421 142.656 200.969C141.686 201.109 140.66 201.124 139.688 201C134.35 200.321 132.594 194.306 131.125 189.938C130.857 189.141 130.607 188.33 130.344 187.531C129.609 185.306 128.81 183.101 127.906 180.938C126.204 176.862 124.122 172.943 122.625 168.781C121.404 165.389 120.882 161.883 120.281 158.344C120.001 156.69 119.673 155.068 119.281 153.438C119.013 152.322 118.736 151.21 118.469 150.094C118.454 150.033 118.45 149.968 118.438 149.906C118.442 149.882 118.465 149.869 118.469 149.844C118.662 148.543 118.629 147.291 117.906 146.156C117.798 145.987 117.631 145.673 117.469 145.562C117.11 145.318 116.79 144.749 116.375 144.875C115.247 145.217 114.395 146.17 113.406 146.812C113.273 146.899 113.41 147.122 113.406 147.281C113.399 147.592 113.466 147.912 113.5 148.219C113.515 148.352 113.517 148.492 113.531 148.625C113.547 148.768 113.578 148.92 113.594 149.062C113.625 149.344 113.654 149.625 113.688 149.906C113.715 150.141 113.718 150.36 113.75 150.594C113.773 150.76 113.81 150.93 113.844 151.094C114.231 152.969 114.661 154.854 114.938 156.75C115.281 159.1 115.432 161.481 115.656 163.844C115.869 166.081 116.175 168.303 116.656 170.5C117.635 174.969 119.149 179.261 120.5 183.625C123.395 192.975 125.081 205.979 136.125 209.094C137.544 209.494 138.996 209.693 140.469 209.719C142.276 209.751 144.14 209.59 145.875 209.062C153.596 206.715 157.156 198.641 160.125 191.875C160.884 190.145 161.625 188.404 162.344 186.656C163.052 184.932 163.754 183.203 164.438 181.469C168.166 172.006 171.729 162.316 177.625 153.938C181.713 148.128 186.897 143.415 192.312 138.875C194.048 137.42 195.803 135.964 197.531 134.5C199.003 133.253 200.464 131.857 202.281 131.125C202.49 131.041 202.702 131.019 202.906 130.969C203.556 131.744 204.496 132.213 205.5 131.844C206.231 131.554 207.032 131.139 207.375 130.375C207.53 130.029 207.659 129.659 207.688 129.281C207.718 128.888 207.662 128.497 207.531 128.125C207.405 127.767 207.174 127.453 206.938 127.156C206.407 126.492 205.626 126.104 204.781 125.938Z" fill="white"/>
<path d="M136.849 202.401C136.658 203.709 136.021 197.283 135.84 196.059C135.3 192.397 134.688 188.513 135.389 184.842C137.278 174.946 134.607 156.674 142.604 148.729" stroke="white" stroke-width="2.53846" stroke-miterlimit="10" stroke-linecap="round"/>
<path d="M250.119 364.094C249.985 363.301 250.61 365.331 250.665 365.466C251.088 366.507 251.543 368.481 252.809 368.867C254.516 369.388 257.798 367.675 259.279 366.936C263.003 365.077 267.703 360.966 270.376 357.739C272.46 355.222 273.792 351.561 276.798 349.961" stroke="white" stroke-width="2.53846" stroke-miterlimit="10" stroke-linecap="round"/>
<path d="M270.312 235.375C269.705 235.432 269.102 235.6 268.531 235.906C265.875 237.573 265.18 240.204 266.344 243C266.717 243.897 267.218 244.754 267.75 245.562C267.912 245.809 268.083 246.037 268.25 246.281C268.258 246.292 268.27 246.294 268.281 246.312C268.309 246.379 268.348 246.433 268.375 246.5C268.442 246.667 268.497 246.833 268.562 247C268.634 247.181 268.701 247.385 268.781 247.562C269.25 248.605 269.689 249.644 270.094 250.719C270.997 253.119 271.908 255.473 273.031 257.781C274.306 260.403 275.702 262.984 277 265.594C277.737 267.075 278.486 268.591 279.031 270.156C279.66 271.96 279.856 273.872 280.312 275.719C280.577 276.789 280.976 277.829 281.406 278.844C281.232 277.781 281.096 276.702 281.094 275.625C281.09 273.35 281.418 271.078 281.062 268.812C280.177 263.165 278.371 257.652 277.938 251.938C277.705 248.872 278.072 245.619 276.938 242.688C276.619 241.864 276.163 241.145 275.688 240.406C275.597 240.266 275.497 240.11 275.406 239.969C275.397 239.238 275.245 238.501 274.875 237.812C273.955 236.1 272.134 235.205 270.312 235.375Z" fill="white"/>
<path d="M131.189 263.538L138.176 234.137C138.176 234.137 154.963 262.334 169.562 273.145C154.17 266.335 145.803 264.689 141.091 258.909C135.074 262.9 131.451 263.729 131.451 263.729" fill="white"/>
<path d="M131.189 263.538L138.176 234.137C138.176 234.137 154.963 262.334 169.562 273.145C154.17 266.335 145.803 264.689 141.091 258.909C135.074 262.9 131.451 263.729 131.451 263.729" stroke="white" stroke-width="2.48836" stroke-miterlimit="10"/>
<path d="M180.577 254.073C178.131 249.125 168.246 240.04 165.852 233.231C184.056 227.2 205.245 240.04 219.972 248.489C214.318 239.517 216.3 242.914 214.048 240.022C213.313 239.079 231.919 209.125 232.658 199.176C234.606 172.971 225.187 160.826 221.631 150.479C231.304 123.495 242.943 122.067 249.944 117.447C231.304 109.488 202.358 175.652 157.852 213.193C156.822 208.213 168.246 191.917 168.246 188.24C162.978 200.228 150.375 212.755 140.107 222.203C129.918 214.752 119.036 199.95 119.036 199.95L125.581 215.933L99.3787 184.156C99.3787 184.156 100.574 227.087 102.384 243.86C109.258 237.432 123.907 239.07 123.907 239.07L127.372 249.396C127.372 249.396 131.189 237.633 132.332 225.298C137.678 227.205 140.689 229.978 146.446 223.737C149.157 220.798 172.764 252.595 180.577 254.073Z" fill="white" stroke="white" stroke-width="2.48836" stroke-miterlimit="10"/>
<path d="M225 139.719C224.702 139.837 224.449 140.089 224.312 140.406C224.039 141.041 224.303 141.758 224.938 142.031C228.714 143.655 230.551 148.939 232.094 152.344C232.719 153.723 233.438 155.042 234.094 156.406C240.179 169.058 241.357 183.863 239.344 197.625C239.11 199.222 238.837 200.759 238.406 202.312C237.783 204.559 236.953 206.764 236.531 209.062C236.404 209.758 236.347 210.487 236.25 211.188C236.151 211.91 236.652 212.557 237.375 212.656C238.098 212.755 238.776 212.254 238.875 211.531C239.045 210.273 239.234 209.008 239.562 207.781C240.076 205.864 240.783 204.007 241.312 202.094C242.032 199.493 242.456 196.792 242.844 194.125C244.385 183.519 243.944 172.516 240.25 162.375C239.322 159.828 238.164 157.335 236.844 154.969C236.327 154.042 235.765 153.147 235.25 152.219C232.858 147.903 230.845 141.873 225.938 139.75C225.62 139.613 225.298 139.601 225 139.719Z" fill="white"/>
</svg>
